<?xml version="1.0" encoding="UTF-8" standalone="no"?>
<!DOCTYPE svg PUBLIC "-//W3C//DTD SVG 1.1//EN"
 "http://www.w3.org/Graphics/SVG/1.1/DTD/svg11.dtd">
<!-- Generated by graphviz version 2.40.1 (20161225.0304)
 -->
<!-- Title: state transitions Pages: 1 -->
<svg width="227pt" height="364pt"
 viewBox="0.00 0.00 227.00 364.00" xmlns="http://www.w3.org/2000/svg" xmlns:xlink="http://www.w3.org/1999/xlink">
<g id="graph0" class="graph" transform="scale(1 1) rotate(0) translate(4 360)">
<title>state transitions</title>
<polygon fill="#ffffff" stroke="transparent" points="-4,4 -4,-360 223,-360 223,4 -4,4"/>
<g id="clust1" class="cluster">
<title>cluster_state</title>
<path fill="none" stroke="#000000" stroke-width="2" d="M20,-8C20,-8 199,-8 199,-8 205,-8 211,-14 211,-20 211,-20 211,-336 211,-336 211,-342 205,-348 199,-348 199,-348 20,-348 20,-348 14,-348 8,-342 8,-336 8,-336 8,-20 8,-20 8,-14 14,-8 20,-8"/>
<text text-anchor="start" x="96.4944" y="-329.2" font-family="Helvetica,sans-Serif" font-size="12.00" fill="#000000">state</text>
</g>
<!-- state -->
<!-- IDLE -->
<g id="node2" class="node">
<title>IDLE</title>
<polygon fill="transparent" stroke="transparent" stroke-width="2" points="144,-310 88,-310 88,-274 144,-274 144,-310"/>
<text text-anchor="start" x="102.6644" y="-288.2" font-family="Helvetica,sans-Serif" font-size="12.00" fill="#000000">IDLE</text>
<path fill="none" stroke="#000000" stroke-width="2" d="M100.3333,-275C100.3333,-275 131.6667,-275 131.6667,-275 137.3333,-275 143,-280.6667 143,-286.3333 143,-286.3333 143,-297.6667 143,-297.6667 143,-303.3333 137.3333,-309 131.6667,-309 131.6667,-309 100.3333,-309 100.3333,-309 94.6667,-309 89,-303.3333 89,-297.6667 89,-297.6667 89,-286.3333 89,-286.3333 89,-280.6667 94.6667,-275 100.3333,-275"/>
</g>
<!-- LOAD -->
<g id="node3" class="node">
<title>LOAD</title>
<polygon fill="transparent" stroke="transparent" stroke-width="2" points="72,-228 16,-228 16,-192 72,-192 72,-228"/>
<text text-anchor="start" x="27.6644" y="-206.2" font-family="Helvetica,sans-Serif" font-size="12.00" fill="#000000">LOAD</text>
<path fill="none" stroke="#000000" stroke-width="2" d="M28.3333,-193C28.3333,-193 59.6667,-193 59.6667,-193 65.3333,-193 71,-198.6667 71,-204.3333 71,-204.3333 71,-215.6667 71,-215.6667 71,-221.3333 65.3333,-227 59.6667,-227 59.6667,-227 28.3333,-227 28.3333,-227 22.6667,-227 17,-221.3333 17,-215.6667 17,-215.6667 17,-204.3333 17,-204.3333 17,-198.6667 22.6667,-193 28.3333,-193"/>
</g>
<!-- IDLE&#45;&gt;LOAD -->
<g id="edge1" class="edge">
<title>IDLE&#45;&gt;LOAD</title>
<path fill="none" stroke="#000000" d="M88.4853,-273.6543C82.1566,-268.6959 75.7594,-263.0203 70.539,-257 65.3899,-251.0619 60.766,-243.9696 56.8759,-237.1169"/>
<polygon fill="#000000" stroke="#000000" points="59.837,-235.2312 52.0457,-228.0517 53.6593,-238.5229 59.837,-235.2312"/>
<text text-anchor="start" x="70" y="-248" font-family="Helvetica,sans-Serif" font-size="10.00" fill="#000000">Enable &#160;&#160;</text>
</g>
<!-- CNT -->
<g id="node4" class="node">
<title>CNT</title>
<polygon fill="transparent" stroke="transparent" stroke-width="2" points="132,-146 76,-146 76,-110 132,-110 132,-146"/>
<text text-anchor="start" x="91.6718" y="-124.2" font-family="Helvetica,sans-Serif" font-size="12.00" fill="#000000">CNT</text>
<path fill="none" stroke="#000000" stroke-width="2" d="M88.3333,-111C88.3333,-111 119.6667,-111 119.6667,-111 125.3333,-111 131,-116.6667 131,-122.3333 131,-122.3333 131,-133.6667 131,-133.6667 131,-139.3333 125.3333,-145 119.6667,-145 119.6667,-145 88.3333,-145 88.3333,-145 82.6667,-145 77,-139.3333 77,-133.6667 77,-133.6667 77,-122.3333 77,-122.3333 77,-116.6667 82.6667,-111 88.3333,-111"/>
</g>
<!-- LOAD&#45;&gt;CNT -->
<g id="edge2" class="edge">
<title>LOAD&#45;&gt;CNT</title>
<path fill="none" stroke="#000000" d="M57.3159,-191.8015C65.3947,-180.7606 75.8402,-166.4851 84.8016,-154.2378"/>
<polygon fill="#000000" stroke="#000000" points="87.6408,-156.2847 90.7213,-146.1476 81.9915,-152.1511 87.6408,-156.2847"/>
<text text-anchor="middle" x="78.3895" y="-166" font-family="Helvetica,sans-Serif" font-size="10.00" fill="#000000"> </text>
</g>
<!-- CNT&#45;&gt;IDLE -->
<g id="edge4" class="edge">
<title>CNT&#45;&gt;IDLE</title>
<path fill="none" stroke="#000000" d="M111.6677,-146.0403C114.0195,-153.0738 116,-161.2867 116,-169 116,-251 116,-251 116,-251 116,-255.0484 116,-259.3216 116,-263.52"/>
<polygon fill="#000000" stroke="#000000" points="112.5001,-263.6312 116,-273.6312 119.5001,-263.6313 112.5001,-263.6312"/>
<text text-anchor="start" x="116" y="-207" font-family="Helvetica,sans-Serif" font-size="10.00" fill="#000000">not (Enable) &#160;&#160;</text>
</g>
<!-- INT -->
<g id="node5" class="node">
<title>INT</title>
<polygon fill="transparent" stroke="transparent" stroke-width="2" points="168,-52 112,-52 112,-16 168,-16 168,-52"/>
<text text-anchor="start" x="130.3358" y="-30.2" font-family="Helvetica,sans-Serif" font-size="12.00" fill="#000000">INT</text>
<path fill="none" stroke="#000000" stroke-width="2" d="M124.3333,-17C124.3333,-17 155.6667,-17 155.6667,-17 161.3333,-17 167,-22.6667 167,-28.3333 167,-28.3333 167,-39.6667 167,-39.6667 167,-45.3333 161.3333,-51 155.6667,-51 155.6667,-51 124.3333,-51 124.3333,-51 118.6667,-51 113,-45.3333 113,-39.6667 113,-39.6667 113,-28.3333 113,-28.3333 113,-22.6667 118.6667,-17 124.3333,-17"/>
</g>
<!-- CNT&#45;&gt;INT -->
<g id="edge3" class="edge">
<title>CNT&#45;&gt;INT</title>
<path fill="none" stroke="#000000" d="M108.1069,-109.8377C111.0525,-97.989 115.4584,-82.3095 120.917,-69 121.9642,-66.4467 123.1481,-63.8396 124.4008,-61.2575"/>
<polygon fill="#000000" stroke="#000000" points="127.6239,-62.6449 129.1173,-52.1559 121.4088,-59.4242 127.6239,-62.6449"/>
<text text-anchor="start" x="120" y="-84" font-family="Helvetica,sans-Serif" font-size="10.00" fill="#000000">not (count &gt; 1) &#160;&#160;</text>
<text text-anchor="start" x="120" y="-72" font-family="Helvetica,sans-Serif" font-size="10.00" fill="#000000">Enable &#160;&#160;</text>
</g>
<!-- INT&#45;&gt;IDLE -->
<g id="edge5" class="edge">
<title>INT&#45;&gt;IDLE</title>
<path fill="none" stroke="#000000" d="M168.2431,-43.9358C183.8052,-51.4029 200,-63.4013 200,-81 200,-154.5 200,-154.5 200,-154.5 200,-187.9317 200.4668,-198.9049 184,-228 175.55,-242.9302 162.4669,-256.4528 150.0247,-267.1804"/>
<polygon fill="#000000" stroke="#000000" points="147.4764,-264.7457 141.9961,-273.813 151.9348,-270.1423 147.4764,-264.7457"/>
<text text-anchor="middle" x="200.3895" y="-166" font-family="Helvetica,sans-Serif" font-size="10.00" fill="#000000"> </text>
</g>
</g>
</svg>
