<?xml version="1.0" encoding="UTF-8" standalone="no"?>
<!DOCTYPE svg PUBLIC "-//W3C//DTD SVG 1.1//EN"
 "http://www.w3.org/Graphics/SVG/1.1/DTD/svg11.dtd">
<!-- Generated by graphviz version 2.40.1 (20161225.0304)
 -->
<!-- Title: state transitions Pages: 1 -->
<svg width="203pt" height="364pt"
 viewBox="0.00 0.00 203.00 364.00" xmlns="http://www.w3.org/2000/svg" xmlns:xlink="http://www.w3.org/1999/xlink">
<g id="graph0" class="graph" transform="scale(1 1) rotate(0) translate(4 360)">
<title>state transitions</title>
<polygon fill="#ffffff" stroke="transparent" points="-4,4 -4,-360 199,-360 199,4 -4,4"/>
<g id="clust1" class="cluster">
<title>cluster_state</title>
<path fill="none" stroke="#000000" stroke-width="2" d="M20,-8C20,-8 175,-8 175,-8 181,-8 187,-14 187,-20 187,-20 187,-336 187,-336 187,-342 181,-348 175,-348 175,-348 20,-348 20,-348 14,-348 8,-342 8,-336 8,-336 8,-20 8,-20 8,-14 14,-8 20,-8"/>
<text text-anchor="start" x="84.4944" y="-329.2" font-family="Helvetica,sans-Serif" font-size="12.00" fill="#000000">state</text>
</g>
<!-- state -->
<!-- IDLE -->
<g id="node2" class="node">
<title>IDLE</title>
<polygon fill="transparent" stroke="transparent" stroke-width="2" points="111,-310 55,-310 55,-274 111,-274 111,-310"/>
<text text-anchor="start" x="69.6644" y="-288.2" font-family="Helvetica,sans-Serif" font-size="12.00" fill="#000000">IDLE</text>
<path fill="none" stroke="#000000" stroke-width="2" d="M67.3333,-275C67.3333,-275 98.6667,-275 98.6667,-275 104.3333,-275 110,-280.6667 110,-286.3333 110,-286.3333 110,-297.6667 110,-297.6667 110,-303.3333 104.3333,-309 98.6667,-309 98.6667,-309 67.3333,-309 67.3333,-309 61.6667,-309 56,-303.3333 56,-297.6667 56,-297.6667 56,-286.3333 56,-286.3333 56,-280.6667 61.6667,-275 67.3333,-275"/>
</g>
<!-- LOAD -->
<g id="node3" class="node">
<title>LOAD</title>
<polygon fill="transparent" stroke="transparent" stroke-width="2" points="72,-228 16,-228 16,-192 72,-192 72,-228"/>
<text text-anchor="start" x="27.6644" y="-206.2" font-family="Helvetica,sans-Serif" font-size="12.00" fill="#000000">LOAD</text>
<path fill="none" stroke="#000000" stroke-width="2" d="M28.3333,-193C28.3333,-193 59.6667,-193 59.6667,-193 65.3333,-193 71,-198.6667 71,-204.3333 71,-204.3333 71,-215.6667 71,-215.6667 71,-221.3333 65.3333,-227 59.6667,-227 59.6667,-227 28.3333,-227 28.3333,-227 22.6667,-227 17,-221.3333 17,-215.6667 17,-215.6667 17,-204.3333 17,-204.3333 17,-198.6667 22.6667,-193 28.3333,-193"/>
</g>
<!-- IDLE&#45;&gt;LOAD -->
<g id="edge1" class="edge">
<title>IDLE&#45;&gt;LOAD</title>
<path fill="none" stroke="#000000" d="M74.3446,-273.8015C69.245,-263.0791 62.6943,-249.306 56.9854,-237.3026"/>
<polygon fill="#000000" stroke="#000000" points="60.087,-235.6749 52.6312,-228.1476 53.7656,-238.6815 60.087,-235.6749"/>
<text text-anchor="start" x="66" y="-248" font-family="Helvetica,sans-Serif" font-size="10.00" fill="#000000">Enable &#160;&#160;</text>
</g>
<!-- CNT -->
<g id="node4" class="node">
<title>CNT</title>
<polygon fill="transparent" stroke="transparent" stroke-width="2" points="103,-146 47,-146 47,-110 103,-110 103,-146"/>
<text text-anchor="start" x="62.6718" y="-124.2" font-family="Helvetica,sans-Serif" font-size="12.00" fill="#000000">CNT</text>
<path fill="none" stroke="#000000" stroke-width="2" d="M59.3333,-111C59.3333,-111 90.6667,-111 90.6667,-111 96.3333,-111 102,-116.6667 102,-122.3333 102,-122.3333 102,-133.6667 102,-133.6667 102,-139.3333 96.3333,-145 90.6667,-145 90.6667,-145 59.3333,-145 59.3333,-145 53.6667,-145 48,-139.3333 48,-133.6667 48,-133.6667 48,-122.3333 48,-122.3333 48,-116.6667 53.6667,-111 59.3333,-111"/>
</g>
<!-- LOAD&#45;&gt;CNT -->
<g id="edge2" class="edge">
<title>LOAD&#45;&gt;CNT</title>
<path fill="none" stroke="#000000" d="M50.8799,-191.8015C54.8934,-181.1853 60.0374,-167.5784 64.5433,-155.6596"/>
<polygon fill="#000000" stroke="#000000" points="67.8769,-156.7392 68.1393,-146.1476 61.3292,-154.2638 67.8769,-156.7392"/>
<text text-anchor="middle" x="62.3895" y="-166" font-family="Helvetica,sans-Serif" font-size="10.00" fill="#000000"> </text>
</g>
<!-- CNT&#45;&gt;IDLE -->
<g id="edge4" class="edge">
<title>CNT&#45;&gt;IDLE</title>
<path fill="none" stroke="#000000" d="M103.0273,-144.7026C110.2344,-151.1546 116,-159.3362 116,-169 116,-251 116,-251 116,-251 116,-256.234 114.3478,-261.1784 111.7828,-265.7008"/>
<polygon fill="#000000" stroke="#000000" points="108.9232,-263.6825 105.9196,-273.8426 114.6036,-267.7731 108.9232,-263.6825"/>
<text text-anchor="start" x="116" y="-207" font-family="Helvetica,sans-Serif" font-size="10.00" fill="#000000">not (Enable) &#160;&#160;</text>
</g>
<!-- INT -->
<g id="node5" class="node">
<title>INT</title>
<polygon fill="transparent" stroke="transparent" stroke-width="2" points="103,-52 47,-52 47,-16 103,-16 103,-52"/>
<text text-anchor="start" x="65.3358" y="-30.2" font-family="Helvetica,sans-Serif" font-size="12.00" fill="#000000">INT</text>
<path fill="none" stroke="#ff0000" stroke-width="2" d="M59.3333,-17C59.3333,-17 90.6667,-17 90.6667,-17 96.3333,-17 102,-22.6667 102,-28.3333 102,-28.3333 102,-39.6667 102,-39.6667 102,-45.3333 96.3333,-51 90.6667,-51 90.6667,-51 59.3333,-51 59.3333,-51 53.6667,-51 48,-45.3333 48,-39.6667 48,-39.6667 48,-28.3333 48,-28.3333 48,-22.6667 53.6667,-17 59.3333,-17"/>
</g>
<!-- CNT&#45;&gt;INT -->
<g id="edge3" class="edge">
<title>CNT&#45;&gt;INT</title>
<path fill="none" stroke="#ff0000" d="M75,-109.8759C75,-96.3516 75,-77.6192 75,-62.1514"/>
<polygon fill="#ff0000" stroke="#ff0000" points="78.5001,-62.0685 75,-52.0685 71.5001,-62.0685 78.5001,-62.0685"/>
<text text-anchor="start" x="75" y="-84" font-family="Helvetica,sans-Serif" font-size="10.00" fill="#ff0000">not (count &gt; 1) &#160;&#160;</text>
<text text-anchor="start" x="75" y="-72" font-family="Helvetica,sans-Serif" font-size="10.00" fill="#ff0000">Enable &#160;&#160;</text>
</g>
</g>
</svg>
